<mxfile host="app.diagrams.net" modified="2024-07-08T18:36:34.080Z" agent="Mozilla/5.0 (Windows NT 10.0; Win64; x64) AppleWebKit/537.36 (KHTML, like Gecko) Chrome/126.0.0.0 Safari/537.36" version="24.6.4" etag="z4ZgbdG0vdYfyQ7xvWvo" type="github">
  <diagram name="PÃ¡gina-1" id="sypNgQiN80uLhpD7VEhG">
    <mxGraphModel>
      <root>
        <mxCell id="0" />
        <mxCell id="1" parent="0" />
      </root>
    </mxGraphModel>
  </diagram>
</mxfile>
